<svg xmlns="http://www.w3.org/2000/svg" viewBox="0 0 32 32" width="32" height="32">
  <defs>
    <linearGradient id="border" x1="0" y1="0" x2="1" y2="1">
      <stop offset="0%" stop-color="#4f6ef7"/>
      <stop offset="100%" stop-color="#6366f1"/>
    </linearGradient>
  </defs>
  <rect width="32" height="32" rx="7" fill="#0a0e1a"/>
  <rect x="0.5" y="0.5" width="31" height="31" rx="6.5" fill="none" stroke="url(#border)" stroke-width="1"/>
  <text x="12" y="22.5" font-family="Georgia, serif" font-size="17" font-weight="bold" fill="white">O</text>
  <!-- sparkles -->
  <polygon points="24,7 24.8,9.2 27,10 24.8,10.8 24,13 23.2,10.8 21,10 23.2,9.2" fill="#f0c040"/>
  <polygon points="27,16 27.5,17.2 28.7,17.7 27.5,18.2 27,19.4 26.5,18.2 25.3,17.7 26.5,17.2" fill="#f0c040"/>
  <polygon points="22,18 22.4,19 23.4,19.4 22.4,19.8 22,20.8 21.6,19.8 20.6,19.4 21.6,19" fill="#f0c040"/>
</svg>
